<?xml version="1.0" standalone="no"?>
<!DOCTYPE svg PUBLIC "-//W3C//DTD SVG 20010904//EN"
 "http://www.w3.org/TR/2001/REC-SVG-20010904/DTD/svg10.dtd">
<svg version="1.0" xmlns="http://www.w3.org/2000/svg"
 width="886.000000pt" height="760.000000pt" viewBox="0 0 886.000000 760.000000"
 preserveAspectRatio="xMidYMid meet">
<metadata>
Created by potrace 1.16, written by Peter Selinger 2001-2019
</metadata>
<g transform="translate(0.000000,760.000000) scale(0.100000,-0.100000)"
fill="#000000" stroke="none">
<path d="M3635 5946 c-36 -15 -92 -77 -100 -109 -3 -12 -4 -373 -3 -802 l3
-780 23 -33 c13 -18 41 -41 62 -52 38 -19 62 -20 815 -20 632 0 782 3 808 14
43 17 84 67 97 116 7 27 10 288 8 798 l-3 758 -27 41 c-16 24 -44 49 -70 62
-44 21 -50 21 -814 21 -613 -1 -775 -3 -799 -14z m905 -500 c0 -6 -42 -52 -92
-103 l-93 -93 43 -42 42 -43 98 98 98 97 54 -55 54 -55 -97 -98 -97 -97 42
-43 43 -42 97 97 98 97 50 -49 c28 -27 49 -56 48 -63 -2 -7 -113 -123 -247
-258 l-245 -245 -55 55 -56 56 98 98 97 97 -42 43 -43 42 -97 -97 -98 -97 -55
54 -55 54 97 98 98 98 -43 42 -42 43 -98 -98 -98 -97 -52 53 c-28 29 -52 57
-52 62 0 6 111 121 247 257 l248 248 52 -52 c29 -29 53 -57 53 -62z"/>
<path d="M4725 3540 c-22 -4 -65 -18 -96 -29 l-56 -22 -12 -62 c-7 -34 -14
-69 -17 -79 -4 -13 6 -19 46 -27 29 -6 55 -9 60 -6 4 3 11 25 14 49 4 24 13
50 21 56 27 22 157 35 218 21 98 -22 167 -107 184 -227 5 -41 4 -46 -10 -41
-15 6 -126 9 -254 8 l-63 -1 0 -52 0 -51 166 6 167 7 -7 -43 c-10 -68 -56
-147 -104 -182 -39 -27 -52 -30 -130 -33 -52 -2 -105 2 -132 10 -40 12 -45 18
-55 55 -5 23 -13 45 -17 48 -4 4 -29 2 -55 -4 l-49 -12 15 -75 15 -74 56 -22
c79 -30 266 -37 344 -13 109 34 195 119 233 229 27 77 24 262 -5 336 -42 106
-116 181 -214 216 -51 18 -206 27 -263 14z"/>
<path d="M5762 3534 c-29 -7 -65 -20 -80 -28 -86 -45 -158 -147 -182 -257 -14
-62 -9 -212 9 -269 34 -110 129 -204 239 -236 73 -21 245 -15 322 12 l55 19
17 75 c10 41 16 80 14 86 -3 6 -21 15 -41 18 -20 4 -42 9 -49 12 -7 3 -17 -16
-26 -52 -14 -53 -18 -58 -55 -71 -26 -9 -70 -13 -122 -11 -72 3 -86 7 -125 33
-143 101 -156 406 -22 524 54 47 121 66 204 58 96 -10 105 -17 120 -87 l13
-62 36 7 c72 12 73 14 66 53 -24 131 -23 129 -76 151 -97 42 -219 52 -317 25z"/>
<path d="M2710 3470 l0 -49 58 -3 57 -3 0 -280 0 -280 -57 -3 -58 -3 0 -49 0
-50 233 0 c127 0 252 5 277 11 103 23 160 93 160 195 0 69 -22 117 -69 152
-20 14 -40 29 -45 33 -5 4 10 25 32 46 49 46 67 102 57 169 -5 38 -16 57 -49
90 -65 66 -108 74 -373 74 l-223 0 0 -50z m444 -64 c47 -19 66 -51 66 -109 0
-88 -65 -125 -201 -115 l-54 4 -3 117 -3 117 81 0 c46 0 95 -6 114 -14z m-38
-316 c56 0 68 -3 96 -29 29 -25 32 -34 32 -84 1 -95 -49 -126 -206 -127 l-78
0 0 119 0 120 33 4 c17 2 38 2 45 0 8 -1 42 -3 78 -3z"/>
<path d="M3620 3470 l0 -50 60 0 60 0 0 -285 0 -285 -60 0 -60 0 0 -51 0 -50
258 3 c237 3 261 5 303 24 89 41 130 136 104 238 -13 49 -46 89 -101 123 -18
11 -17 13 14 38 92 75 96 205 9 282 -62 54 -112 63 -364 63 l-223 0 0 -50z
m444 -64 c46 -19 66 -51 66 -108 0 -38 -6 -54 -29 -80 -28 -31 -29 -32 -127
-32 l-99 -1 -3 118 -3 117 81 0 c46 0 95 -6 114 -14z m58 -345 c30 -26 33 -35
33 -84 0 -96 -50 -127 -202 -127 l-83 0 0 120 0 120 110 0 c107 0 110 -1 142
-29z"/>
</g>
</svg>
