<?xml version="1.0" standalone="no"?>
<!DOCTYPE svg PUBLIC "-//W3C//DTD SVG 20010904//EN"
 "http://www.w3.org/TR/2001/REC-SVG-20010904/DTD/svg10.dtd">
<svg version="1.0" xmlns="http://www.w3.org/2000/svg"
 width="371.000000pt" height="365.000000pt" viewBox="0 0 371.000000 365.000000"
 preserveAspectRatio="xMidYMid meet">

<g transform="translate(0.000000,365.000000) scale(0.100000,-0.100000)"
fill="#000000" stroke="none">
<path d="M1075 3431 c-48 -16 -73 -35 -98 -74 l-27 -41 0 -778 c0 -643 2 -784
14 -812 14 -33 62 -76 100 -90 10 -3 370 -6 800 -6 l781 0 40 28 c21 15 48 43
60 62 20 34 20 50 23 793 2 488 -1 771 -8 795 -12 45 -61 99 -106 118 -28 12
-168 14 -796 13 -420 -1 -772 -4 -783 -8z m837 -448 c26 -26 48 -52 48 -57 0
-6 -41 -51 -90 -101 -60 -60 -89 -96 -85 -106 4 -8 22 -27 42 -43 l34 -29 97
97 96 96 56 -55 55 -55 -99 -99 -98 -98 43 -41 44 -41 96 96 97 96 23 -19 c13
-10 39 -35 58 -56 l34 -39 -250 -249 c-138 -138 -253 -250 -257 -250 -3 0 -14
8 -23 18 -10 11 -34 35 -53 56 l-34 36 97 98 97 98 -43 42 -42 42 -95 -95
c-52 -52 -97 -95 -100 -95 -7 0 -110 98 -110 104 0 2 43 47 96 100 82 81 95
98 84 111 -7 8 -17 12 -23 8 -5 -3 -7 -2 -4 4 8 12 -40 59 -50 50 -5 -4 -49
-48 -99 -98 l-91 -91 -51 53 c-28 30 -52 59 -52 64 0 7 266 279 418 428 6 6
24 24 40 40 15 15 31 27 37 27 5 0 31 -21 57 -47z"/>
<path d="M2135 1017 c-33 -8 -79 -23 -102 -35 -38 -20 -42 -26 -53 -79 -6 -32
-13 -65 -16 -75 -4 -13 6 -19 46 -27 29 -6 56 -9 61 -6 4 3 11 28 15 55 6 47
9 50 43 60 166 44 295 2 350 -115 10 -22 22 -63 26 -89 l8 -48 -167 5 -166 6
0 -56 0 -56 166 6 166 6 -7 -42 c-11 -71 -55 -149 -103 -182 -40 -27 -52 -30
-135 -33 -127 -4 -168 11 -182 66 -5 22 -13 43 -16 47 -11 10 -99 -17 -99 -31
0 -27 23 -119 32 -132 16 -19 136 -51 211 -55 162 -9 275 36 359 140 16 21 33
56 59 123 21 52 18 252 -4 310 -25 65 -87 152 -104 146 -8 -3 -12 -2 -9 3 8
13 -24 37 -87 66 -69 32 -199 41 -292 22z"/>
<path d="M3202 1019 c-179 -35 -292 -191 -292 -404 0 -309 217 -465 540 -389
36 8 72 21 81 27 17 13 54 151 44 167 -4 7 -68 22 -92 22 -5 0 -15 -24 -23
-54 -14 -46 -20 -55 -50 -65 -56 -19 -171 -16 -223 6 -54 23 -101 79 -124 146
-23 70 -23 213 1 283 45 134 172 196 326 160 l55 -13 14 -63 c16 -67 19 -69
84 -51 26 7 37 15 37 29 0 11 -3 20 -7 20 -5 0 -9 20 -10 45 -1 24 -7 54 -13
65 -31 58 -216 95 -348 69z"/>
<path d="M130 955 l0 -54 58 -3 57 -3 0 -280 0 -280 -57 -3 -58 -3 0 -50 0
-50 258 3 c247 3 259 4 305 27 67 33 100 85 105 165 5 80 -25 140 -87 175
l-42 23 40 37 c22 21 47 54 56 74 16 39 21 122 6 113 -5 -4 -7 2 -4 13 7 26
-50 87 -104 112 -60 27 -177 39 -370 38 l-163 -1 0 -53z m443 -69 c18 -7 41
-25 50 -39 20 -30 22 -98 5 -130 -21 -41 -39 -46 -145 -47 l-103 0 0 115 0
115 80 0 c46 0 95 -6 113 -14z m42 -332 c68 -32 69 -148 2 -198 -23 -17 -46
-21 -132 -24 l-105 -4 0 121 0 121 101 0 c71 0 111 -5 134 -16z"/>
<path d="M1053 1003 c-8 -3 -13 -24 -13 -53 l0 -49 58 -3 57 -3 0 -280 0 -280
-57 -3 -58 -3 0 -50 0 -50 258 3 c254 3 258 3 307 29 144 74 147 260 6 350
l-24 15 35 35 c120 117 78 272 -89 324 -44 14 -100 18 -262 20 -113 2 -212 1
-218 -2z m419 -113 c20 -6 47 -23 58 -38 18 -22 21 -36 16 -82 -8 -84 -10 -89
-19 -83 -4 2 -13 0 -20 -6 -7 -5 -57 -11 -112 -12 l-100 -2 -5 112 c-3 62 -3
115 -1 117 9 8 147 4 183 -6z m79 -358 c22 -24 29 -42 29 -72 0 -94 -42 -123
-187 -128 l-103 -4 0 123 0 124 116 -5 c115 -5 116 -5 145 -38z"/>
</g>
</svg>
